<svg width="37" height="27" viewBox="0 0 37 27" fill="none" xmlns="http://www.w3.org/2000/svg">
<g filter="url(#filter0_b_1322_1644)">
<mask id="path-1-inside-1_1322_1644" fill="white">
<path fill-rule="evenodd" clip-rule="evenodd" d="M31.4697 0.200012H18.4637H5.46988C4.15096 0.200012 3.78459 0.565467 3.78459 1.84456V15.61C3.78459 16.8769 4.16317 17.2546 5.40882 17.2546H31.4697C32.7153 17.2546 33.0939 16.8769 33.0939 15.61V1.84456C33.0939 0.577649 32.7153 0.200012 31.4697 0.200012ZM1.70852 27H18.3782H35.1822C35.4753 27 35.7928 26.9878 36.0737 26.8904C36.7209 26.6711 36.9163 26.1351 36.5866 25.5382C35.4267 23.419 34.2545 21.312 33.0824 19.2049L33.0817 19.2037C32.8008 18.7164 32.3978 18.4727 31.836 18.4727H5.03024C4.46848 18.4727 4.06548 18.7164 3.79681 19.2037L3.79679 19.2037C2.62442 21.3111 1.45206 23.4186 0.291905 25.5382C-0.0378252 26.1351 0.169782 26.6711 0.81703 26.8904C1.0857 26.9878 1.40322 27 1.70852 27ZM19.1964 24.5664C18.94 24.565 18.6835 24.5637 18.427 24.5637C18.171 24.5637 17.915 24.565 17.6586 24.5663C17.1443 24.5691 16.6282 24.5718 16.1067 24.5637C15.3251 24.5515 14.7878 24.0642 14.7756 23.3698C14.7634 22.6511 15.3129 22.1395 16.1311 22.1395C17.6699 22.1273 19.2208 22.1273 20.7596 22.1395C21.5412 22.1517 22.0785 22.6389 22.0907 23.3333C22.1029 24.0398 21.5534 24.5515 20.7351 24.5637C20.2222 24.5718 19.7093 24.5691 19.1964 24.5664Z"/>
</mask>
<path fill-rule="evenodd" clip-rule="evenodd" d="M31.4697 0.200012H18.4637H5.46988C4.15096 0.200012 3.78459 0.565467 3.78459 1.84456V15.61C3.78459 16.8769 4.16317 17.2546 5.40882 17.2546H31.4697C32.7153 17.2546 33.0939 16.8769 33.0939 15.61V1.84456C33.0939 0.577649 32.7153 0.200012 31.4697 0.200012ZM1.70852 27H18.3782H35.1822C35.4753 27 35.7928 26.9878 36.0737 26.8904C36.7209 26.6711 36.9163 26.1351 36.5866 25.5382C35.4267 23.419 34.2545 21.312 33.0824 19.2049L33.0817 19.2037C32.8008 18.7164 32.3978 18.4727 31.836 18.4727H5.03024C4.46848 18.4727 4.06548 18.7164 3.79681 19.2037L3.79679 19.2037C2.62442 21.3111 1.45206 23.4186 0.291905 25.5382C-0.0378252 26.1351 0.169782 26.6711 0.81703 26.8904C1.0857 26.9878 1.40322 27 1.70852 27ZM19.1964 24.5664C18.94 24.565 18.6835 24.5637 18.427 24.5637C18.171 24.5637 17.915 24.565 17.6586 24.5663C17.1443 24.5691 16.6282 24.5718 16.1067 24.5637C15.3251 24.5515 14.7878 24.0642 14.7756 23.3698C14.7634 22.6511 15.3129 22.1395 16.1311 22.1395C17.6699 22.1273 19.2208 22.1273 20.7596 22.1395C21.5412 22.1517 22.0785 22.6389 22.0907 23.3333C22.1029 24.0398 21.5534 24.5515 20.7351 24.5637C20.2222 24.5718 19.7093 24.5691 19.1964 24.5664Z" fill="#E60000"/>
<path d="M36.0737 26.8904L35.7528 25.9432L35.7459 25.9456L36.0737 26.8904ZM36.5866 25.5382L35.7094 26.0183L35.7113 26.0217L36.5866 25.5382ZM33.0824 19.2049L33.9563 18.7188L33.9554 18.7173L33.0824 19.2049ZM33.0817 19.2037L33.9548 18.716L33.9481 18.7042L33.0817 19.2037ZM3.79681 19.2037L4.6717 19.688L4.67252 19.6865L3.79681 19.2037ZM3.79679 19.2037L4.67067 19.6898L4.67168 19.688L3.79679 19.2037ZM0.291905 25.5382L1.16724 26.0217L1.1691 26.0183L0.291905 25.5382ZM0.81703 26.8904L1.15802 25.9503L1.14799 25.9467L1.13789 25.9433L0.81703 26.8904ZM19.1964 24.5664L19.1911 25.5663H19.1911L19.1964 24.5664ZM17.6586 24.5663L17.6533 23.5664H17.6533L17.6586 24.5663ZM16.1067 24.5637L16.1223 23.5638H16.1223L16.1067 24.5637ZM14.7756 23.3698L13.7757 23.3868L13.7757 23.3874L14.7756 23.3698ZM16.1311 22.1395V23.1395L16.1391 23.1394L16.1311 22.1395ZM20.7596 22.1395L20.7752 21.1396L20.7675 21.1395L20.7596 22.1395ZM22.0907 23.3333L23.0906 23.316L23.0905 23.3157L22.0907 23.3333ZM20.7351 24.5637L20.7203 23.5638L20.7193 23.5638L20.7351 24.5637ZM18.4637 1.20001H31.4697V-0.799988H18.4637V1.20001ZM5.46988 1.20001H18.4637V-0.799988H5.46988V1.20001ZM4.7846 1.84456C4.7846 1.56224 4.80597 1.3943 4.83106 1.29656C4.85311 1.21063 4.86643 1.22367 4.83246 1.25695C4.79982 1.28893 4.79208 1.27207 4.88973 1.24797C4.99731 1.22142 5.1764 1.20001 5.46988 1.20001V-0.799988C4.79508 -0.799988 3.9988 -0.72618 3.43282 -0.171695C2.85983 0.389666 2.78459 1.18444 2.78459 1.84456H4.7846ZM4.7846 15.61V1.84456H2.78459V15.61H4.7846ZM5.40882 16.2546C5.1385 16.2546 4.97679 16.233 4.883 16.2084C4.80013 16.1867 4.8099 16.1732 4.84009 16.2037C4.86971 16.2336 4.85446 16.2408 4.83166 16.1522C4.80627 16.0536 4.7846 15.8862 4.7846 15.61H2.78459C2.78459 16.2745 2.86687 17.0535 3.41909 17.6111C3.97448 18.1718 4.75238 18.2546 5.40882 18.2546V16.2546ZM31.4697 16.2546H5.40882V18.2546H31.4697V16.2546ZM32.0939 15.61C32.0939 15.8862 32.0722 16.0536 32.0468 16.1522C32.024 16.2408 32.0088 16.2336 32.0384 16.2037C32.0686 16.1732 32.0784 16.1867 31.9955 16.2084C31.9017 16.233 31.74 16.2546 31.4697 16.2546V18.2546C32.1261 18.2546 32.904 18.1718 33.4594 17.6111C34.0116 17.0535 34.0939 16.2745 34.0939 15.61H32.0939ZM32.0939 1.84456V15.61H34.0939V1.84456H32.0939ZM31.4697 1.20001C31.74 1.20001 31.9017 1.22158 31.9955 1.24616C32.0784 1.26787 32.0686 1.28137 32.0384 1.25089C32.0088 1.22098 32.024 1.21374 32.0468 1.30233C32.0722 1.40099 32.0939 1.56835 32.0939 1.84456H34.0939C34.0939 1.18003 34.0116 0.401058 33.4594 -0.1565C32.904 -0.717262 32.1261 -0.799988 31.4697 -0.799988V1.20001ZM18.3782 26H1.70852V28H18.3782V26ZM35.1822 26H18.3782V28H35.1822V26ZM35.7459 25.9456C35.6386 25.9829 35.4714 26 35.1822 26V28C35.4792 28 35.947 27.9928 36.4015 27.8351L35.7459 25.9456ZM35.7113 26.0217C35.7437 26.0804 35.7458 26.1065 35.745 26.0997C35.7445 26.0959 35.7434 26.0844 35.7453 26.0667C35.7472 26.0487 35.7517 26.0274 35.7602 26.0047C35.7687 25.982 35.7797 25.962 35.7913 25.9456C35.8027 25.9294 35.8128 25.9197 35.8178 25.9153C35.8275 25.9069 35.8133 25.9228 35.7528 25.9433L36.3945 27.8375C36.9217 27.6589 37.4123 27.295 37.6328 26.7071C37.8515 26.1242 37.7255 25.5318 37.4619 25.0547L35.7113 26.0217ZM32.2085 19.6911C33.3809 21.7986 34.5514 23.9026 35.7094 26.0183L37.4638 25.0581C36.3019 22.9353 35.1281 20.8253 33.9563 18.7188L32.2085 19.6911ZM32.2086 19.6913L32.2094 19.6926L33.9554 18.7173L33.9547 18.716L32.2086 19.6913ZM31.836 19.4727C31.9676 19.4727 32.0271 19.4996 32.0553 19.5163C32.0855 19.5341 32.1433 19.5782 32.2153 19.7031L33.9481 18.7042C33.7392 18.3419 33.4551 18.0204 33.0731 17.7946C32.6892 17.5677 32.2663 17.4727 31.836 17.4727V19.4727ZM5.03024 19.4727H31.836V17.4727H5.03024V19.4727ZM4.67252 19.6865C4.73732 19.569 4.78985 19.5298 4.81529 19.5147C4.84004 19.4999 4.89793 19.4727 5.03024 19.4727V17.4727C4.6008 17.4727 4.1763 17.5674 3.79195 17.7963C3.40827 18.0248 3.12497 18.3511 2.9211 18.7208L4.67252 19.6865ZM4.67168 19.688L4.6717 19.688L2.92192 18.7193L2.92189 18.7194L4.67168 19.688ZM1.1691 26.0183C2.32733 23.9022 3.49803 21.7978 4.67067 19.6898L2.92291 18.7176C1.75082 20.8245 0.57678 22.9349 -0.585295 25.0581L1.1691 26.0183ZM1.13789 25.9433C1.07656 25.9225 1.0598 25.9057 1.06688 25.9117C1.07068 25.915 1.07964 25.9235 1.09033 25.9383C1.10115 25.9533 1.11183 25.9721 1.12037 25.9941C1.1289 26.0161 1.13375 26.0373 1.13589 26.0558C1.13799 26.074 1.1371 26.0864 1.13647 26.0916C1.1353 26.1012 1.13619 26.0779 1.16723 26.0217L-0.583424 25.0547C-0.850824 25.5387 -0.97013 26.1354 -0.744164 26.7177C-0.518251 27.2998 -0.0278111 27.66 0.496165 27.8375L1.13789 25.9433ZM1.70852 26C1.39917 26 1.24342 25.9813 1.15802 25.9503L0.47604 27.8304C0.927976 27.9944 1.40726 28 1.70852 28V26ZM18.427 25.5637C18.6804 25.5637 18.9342 25.565 19.1911 25.5663L19.2017 23.5664C18.9457 23.565 18.6866 23.5637 18.427 23.5637V25.5637ZM17.6638 25.5663C17.9207 25.565 18.1741 25.5637 18.427 25.5637V23.5637C18.168 23.5637 17.9093 23.565 17.6533 23.5664L17.6638 25.5663ZM16.0911 25.5635C16.6248 25.5718 17.1512 25.569 17.6638 25.5663L17.6533 23.5664C17.1374 23.5691 16.6317 23.5717 16.1223 23.5638L16.0911 25.5635ZM13.7757 23.3874C13.7866 24.0023 14.0369 24.5639 14.4838 24.966C14.9235 25.3616 15.497 25.5543 16.0911 25.5635L16.1223 23.5638C15.9349 23.5609 15.8489 23.5038 15.8215 23.4792C15.8013 23.461 15.7768 23.4317 15.7754 23.3522L13.7757 23.3874ZM16.1311 21.1395C15.5146 21.1395 14.9186 21.3343 14.4671 21.7471C14.0079 22.1671 13.765 22.7541 13.7757 23.3868L15.7754 23.3528C15.7746 23.304 15.7833 23.2757 15.7892 23.2616C15.795 23.2477 15.8031 23.2356 15.8168 23.2231C15.8416 23.2005 15.9295 23.1395 16.1311 23.1395V21.1395ZM20.7675 21.1395C19.2235 21.1273 17.6672 21.1273 16.1232 21.1395L16.1391 23.1394C17.6725 23.1273 19.2182 23.1273 20.7517 23.1394L20.7675 21.1395ZM23.0905 23.3157C23.0797 22.7008 22.8294 22.1392 22.3825 21.7372C21.9428 21.3416 21.3693 21.1489 20.7752 21.1396L20.744 23.1393C20.9314 23.1423 21.0174 23.1993 21.0448 23.224C21.065 23.2422 21.0895 23.2714 21.0909 23.3509L23.0905 23.3157ZM20.75 25.5635C21.3625 25.5544 21.9522 25.3555 22.3991 24.9468C22.8544 24.5305 23.1015 23.9484 23.0906 23.316L21.0909 23.3506C21.0916 23.3939 21.0839 23.4187 21.0785 23.4313C21.0732 23.4439 21.065 23.4567 21.0495 23.4709C21.0202 23.4977 20.926 23.5607 20.7203 23.5638L20.75 25.5635ZM19.1911 25.5663C19.7023 25.569 20.2258 25.5718 20.751 25.5635L20.7193 23.5638C20.2187 23.5717 19.7164 23.5691 19.2017 23.5664L19.1911 25.5663Z" fill="#E60000" mask="url(#path-1-inside-1_1322_1644)"/>
</g>
<defs>
<filter id="filter0_b_1322_1644" x="-11.8628" y="-11.8" width="60.6069" height="50.8" filterUnits="userSpaceOnUse" color-interpolation-filters="sRGB">
<feFlood flood-opacity="0" result="BackgroundImageFix"/>
<feGaussianBlur in="BackgroundImageFix" stdDeviation="6"/>
<feComposite in2="SourceAlpha" operator="in" result="effect1_backgroundBlur_1322_1644"/>
<feBlend mode="normal" in="SourceGraphic" in2="effect1_backgroundBlur_1322_1644" result="shape"/>
</filter>
</defs>
</svg>
