<svg width="10" height="18" viewBox="0 0 10 18" fill="none" xmlns="http://www.w3.org/2000/svg">
<path fill-rule="evenodd" clip-rule="evenodd" d="M7.99985 0.99999C8.09209 0.90448 8.20244 0.828298 8.32444 0.775889C8.44645 0.72348 8.57767 0.695894 8.71045 0.69474C8.84323 0.693586 8.97491 0.718888 9.0978 0.769169C9.2207 0.81945 9.33235 0.893703 9.42624 0.987595C9.52014 1.08149 9.59439 1.19314 9.64467 1.31604C9.69495 1.43893 9.72025 1.57061 9.7191 1.70339C9.71794 1.83617 9.69036 1.96739 9.63795 2.08939C9.58554 2.2114 9.50936 2.32174 9.41385 2.41399L3.53485 8.29299C3.34738 8.48052 3.24206 8.73483 3.24206 8.99999C3.24206 9.26515 3.34738 9.51946 3.53485 9.70699L9.41485 15.586C9.60236 15.7736 9.70764 16.0281 9.70755 16.2933C9.70746 16.5586 9.60199 16.813 9.41435 17.0005C9.22671 17.188 8.97226 17.2933 8.70699 17.2932C8.44172 17.2931 8.18736 17.1876 7.99985 17L0.706849 9.70699C0.519378 9.51946 0.414062 9.26515 0.414062 8.99999C0.414062 8.73483 0.519378 8.48052 0.706849 8.29299L7.99985 0.99999Z" fill="white"/>
</svg>
