<svg width="258" height="239" viewBox="0 0 258 239" fill="none" xmlns="http://www.w3.org/2000/svg">
<path fill-rule="evenodd" clip-rule="evenodd" d="M195.83 0H257.639V52.7148C257.639 70.9964 246.578 87.18 229.884 96.6432C246.579 106.108 257.639 122.291 257.639 140.572V193.287H237.037V140.572C237.037 121.243 218.494 105.429 195.83 105.429H154.624V179.775C141.998 170.106 134.021 156.096 134.021 140.572V52.7148C134.021 23.7215 161.836 0 195.83 0ZM61.9115 0H0.102539V52.7148C0.102539 81.7081 27.917 105.43 61.9115 105.43H103.118V140.573C103.118 159.903 84.5751 175.716 61.9115 175.716H20.7052V140.573C20.7052 131.788 24.5364 123.729 30.8445 117.551C24.3497 115.272 18.2644 112.306 12.7207 108.754C4.81321 117.612 0.102539 128.645 0.102539 140.572V193.287H61.9115C95.906 193.287 123.72 169.566 123.72 140.572V87.8577H61.9115C39.2479 87.8577 20.7052 72.044 20.7052 52.7148V17.571H61.9115C84.5751 17.571 103.118 33.3856 103.118 52.7139V70.2858H123.72V52.7139C123.72 23.7215 95.906 0 61.9115 0ZM195.83 17.571H237.037V52.7139C237.037 72.0431 218.494 87.8568 195.83 87.8568H154.624V52.7139C154.624 33.3847 173.167 17.571 195.83 17.571Z" fill="white"/>
<path d="M84.2512 208.402C84.9932 208.402 85.5951 208.185 86.0585 207.75C86.521 207.316 86.7532 206.727 86.7532 205.982C86.7532 204.4 85.9192 203.609 84.2512 203.609C82.5831 203.609 81.7026 204.4 81.7026 205.982C81.7026 207.564 82.5515 208.401 84.2512 208.401V208.402Z" fill="white"/>
<path d="M90.3203 205.982C90.3203 207.596 91.1701 208.401 92.8688 208.401C93.61 208.401 94.2192 208.177 94.6994 207.726C95.1777 207.277 95.4173 206.695 95.4173 205.982C95.4173 205.269 95.1777 204.695 94.6994 204.26C94.2202 203.826 93.61 203.609 92.8688 203.609C91.1692 203.609 90.3203 204.4 90.3203 205.982Z" fill="white"/>
<path d="M88.5597 202.446C89.3018 202.446 89.9111 202.222 90.3903 201.771C90.8696 201.323 91.1092 200.741 91.1092 200.027C91.1092 199.313 90.8696 198.74 90.3903 198.305C89.9111 197.871 89.3018 197.654 88.5597 197.654C86.861 197.654 86.0112 198.445 86.0112 200.027C86.0112 201.609 86.861 202.446 88.5597 202.446Z" fill="white"/>
<path d="M114.461 217.707C114.12 218.297 113.951 220.08 113.951 223.058H99.727V213.566L96.1123 215.381C95.4009 215.753 95.047 216.483 95.047 217.568V223.058H91.618V215.287C89.116 216.528 87.7878 217.21 87.6327 217.334C87.107 217.769 86.8451 218.544 86.8451 219.66L86.8916 221.103V223.058H83.4162V217.521C82.0258 218.203 80.6512 218.902 79.2925 219.615C78.8903 219.957 78.6906 221.104 78.6906 223.059H70.6281C70.1646 222.314 69.886 221.88 69.794 221.755C69.4225 221.29 68.5894 220.624 67.292 219.755C66.118 218.918 65.3926 218.266 65.114 217.8C64.867 217.367 64.5735 216.793 64.2335 216.079L63.3531 217.753C63.1673 218.126 62.5191 218.7 61.4073 219.475C59.9557 220.53 58.7204 221.724 57.7006 223.058C54.7973 223.12 53.0058 223.26 52.3259 223.477C50.5956 224.066 49.731 225.494 49.731 227.757V236.132C49.731 236.566 49.9548 237.016 50.4025 237.482C50.8501 237.947 51.2903 238.179 51.7231 238.179H55.2914V228.641H57.7006C58.8746 231.556 61.021 233.015 64.1416 233.015C65.5933 233.015 66.9139 232.62 68.1037 231.829C69.2925 231.038 70.1497 229.975 70.6745 228.642H116.129C116.715 228.642 117.287 228.386 117.843 227.874C118.4 227.362 118.677 226.827 118.677 226.268V214.357C116.175 216.032 114.769 217.149 114.461 217.707ZM64.1416 228.269C62.5348 228.269 61.7324 227.463 61.7324 225.85C61.7324 224.237 62.5348 223.477 64.1416 223.477C65.7484 223.477 66.5053 224.268 66.5053 225.85C66.5053 227.432 65.7177 228.269 64.1416 228.269Z" fill="white"/>
<path d="M115.619 233.155C114.044 233.155 113.256 233.946 113.256 235.528C113.256 237.11 114.044 237.901 115.619 237.901C117.194 237.901 117.983 237.11 117.983 235.528C117.983 233.946 117.195 233.155 115.619 233.155Z" fill="white"/>
<path d="M107.557 233.155C105.981 233.155 105.194 233.946 105.194 235.528C105.194 237.11 105.981 237.901 107.557 237.901C109.132 237.901 109.92 237.11 109.92 235.528C109.92 233.946 109.133 233.155 107.557 233.155Z" fill="white"/>
<path d="M145.736 217.801C145.396 218.359 145.226 220.111 145.226 223.059H132.855V217.429C130.383 218.67 129.055 219.368 128.869 219.523C127.849 220.33 127.34 221.57 127.34 223.245V231.341H121.225C121.379 232.923 122.043 234.241 123.217 235.296C124.391 236.351 125.765 236.878 127.34 236.878C128.916 236.878 130.229 236.35 131.278 235.296C132.329 234.241 132.855 232.923 132.855 231.341V228.643H147.357C147.944 228.643 148.523 228.395 149.095 227.899C149.666 227.403 149.952 226.86 149.952 226.27V214.359C147.357 216.283 145.952 217.43 145.736 217.802V217.801Z" fill="white"/>
<path d="M144.717 233.387C143.141 233.387 142.354 234.179 142.354 235.76C142.354 237.341 143.141 238.179 144.717 238.179C146.293 238.179 147.126 237.373 147.126 235.76C147.126 234.147 146.323 233.387 144.717 233.387Z" fill="white"/>
<path d="M156.996 202.353V228.641H161.768V196.909C160.717 197.623 159.652 198.352 158.571 199.096C157.519 199.996 156.995 201.081 156.995 202.353H156.996Z" fill="white"/>
<path d="M173.999 213.659C172.609 213.815 171.497 214.249 170.663 214.963C168.161 217.134 166.91 219.833 166.91 223.059V228.642H179.838C180.548 228.642 181.104 228.193 181.506 227.293C181.814 226.611 181.969 225.866 181.969 225.06V210.915C180.702 212.094 179.296 212.869 177.752 213.241L173.999 213.66V213.659ZM177.197 223.059H171.683C171.651 222.872 171.638 222.686 171.638 222.501C171.638 221.416 172.054 220.454 172.888 219.616C173.722 218.779 174.695 218.36 175.807 218.36C176.24 218.36 176.702 218.437 177.197 218.592V223.059Z" fill="white"/>
<path d="M189.012 202.353V228.641H193.784V196.909C192.734 197.623 191.668 198.352 190.587 199.096C189.536 199.996 189.011 201.081 189.011 202.353H189.012Z" fill="white"/>
<path d="M204.025 219.522C203.006 220.329 202.497 221.569 202.497 223.244V231.34H196.381C196.535 232.984 197.199 234.286 198.373 235.249C199.485 236.18 200.859 236.645 202.497 236.645C204.134 236.645 205.423 236.163 206.459 235.202C207.493 234.24 208.011 232.952 208.011 231.34V217.429C205.539 218.67 204.211 219.368 204.025 219.523V219.522Z" fill="white"/>
</svg>
