<svg width="41" height="40" viewBox="0 0 41 40" fill="none" xmlns="http://www.w3.org/2000/svg">
<g clip-path="url(#clip0_1322_1651)">
<g filter="url(#filter0_b_1322_1651)">
<mask id="path-1-inside-1_1322_1651" fill="white">
<path fill-rule="evenodd" clip-rule="evenodd" d="M3.46634 23.3456V23.8257C15.0406 23.8257 26.5367 23.8257 38.0775 23.8146V23.3345V8.31835C38.0775 7.26889 37.6087 6.79999 36.5372 6.79999H5.0066C3.92395 6.79999 3.46634 7.26889 3.46634 8.32951V23.3456ZM19.7232 18.2975C19.2566 18.5674 18.7868 18.8392 18.3109 19.1143V12.5497C19.5188 13.2533 20.7087 13.9389 21.9121 14.6323C22.599 15.028 23.2903 15.4263 23.992 15.832C22.5454 16.6648 21.1495 17.4723 19.7232 18.2975ZM32.6767 29.8188C32.5663 29.5482 32.4534 29.2712 32.3405 28.9837H32.3413C33.8478 28.9837 35.265 28.9837 36.6599 28.9725C37.4189 28.9613 37.9993 28.5371 38.0328 27.8561C38.0713 27.2079 38.0619 26.5543 38.0524 25.8954C38.0482 25.6011 38.0439 25.3056 38.0439 25.0091H3.45508V27.376C3.45508 28.5036 3.92385 28.9725 5.03998 28.9725H9.18082C8.83491 29.8431 8.51132 30.6467 8.18773 31.4504L8.18746 31.451C8.05353 31.8083 7.99772 32.1655 8.44417 32.333C8.87946 32.5005 9.09153 32.2102 9.23663 31.8529C9.3347 31.6109 9.4347 31.3699 9.53464 31.129C9.77591 30.5474 10.0169 29.9665 10.23 29.3744C10.3528 29.0507 10.5202 28.9725 10.8439 28.9725C17.4625 28.9837 24.0811 28.9837 30.6998 28.9725C31.0458 28.9725 31.1909 29.0842 31.3025 29.3968C31.5557 30.0689 31.8259 30.7241 32.0983 31.3845C32.1381 31.481 32.1779 31.5775 32.2177 31.6743C32.2456 31.7357 32.2707 31.7943 32.2959 31.8529C32.321 31.9115 32.3461 31.9702 32.374 32.0316C32.5191 32.3553 32.8204 32.5116 33.0883 32.3218C33.2669 32.199 33.4231 31.8083 33.3562 31.6073C33.1627 31.0112 32.9262 30.4312 32.6767 29.8188ZM24.9852 27.2085H20.7439C20.2756 27.2085 19.806 27.2073 19.3359 27.2061C18.3947 27.2036 17.4517 27.2011 16.5138 27.2085C16.1343 27.2085 15.766 27.1639 15.7548 26.6838C15.7437 26.1926 16.112 26.0921 16.5249 26.0921H24.9964C25.3982 26.0921 25.7777 26.1814 25.7777 26.6726C25.7777 27.1862 25.3759 27.2085 24.9852 27.2085Z"/>
</mask>
<path fill-rule="evenodd" clip-rule="evenodd" d="M3.46634 23.3456V23.8257C15.0406 23.8257 26.5367 23.8257 38.0775 23.8146V23.3345V8.31835C38.0775 7.26889 37.6087 6.79999 36.5372 6.79999H5.0066C3.92395 6.79999 3.46634 7.26889 3.46634 8.32951V23.3456ZM19.7232 18.2975C19.2566 18.5674 18.7868 18.8392 18.3109 19.1143V12.5497C19.5188 13.2533 20.7087 13.9389 21.9121 14.6323C22.599 15.028 23.2903 15.4263 23.992 15.832C22.5454 16.6648 21.1495 17.4723 19.7232 18.2975ZM32.6767 29.8188C32.5663 29.5482 32.4534 29.2712 32.3405 28.9837H32.3413C33.8478 28.9837 35.265 28.9837 36.6599 28.9725C37.4189 28.9613 37.9993 28.5371 38.0328 27.8561C38.0713 27.2079 38.0619 26.5543 38.0524 25.8954C38.0482 25.6011 38.0439 25.3056 38.0439 25.0091H3.45508V27.376C3.45508 28.5036 3.92385 28.9725 5.03998 28.9725H9.18082C8.83491 29.8431 8.51132 30.6467 8.18773 31.4504L8.18746 31.451C8.05353 31.8083 7.99772 32.1655 8.44417 32.333C8.87946 32.5005 9.09153 32.2102 9.23663 31.8529C9.3347 31.6109 9.4347 31.3699 9.53464 31.129C9.77591 30.5474 10.0169 29.9665 10.23 29.3744C10.3528 29.0507 10.5202 28.9725 10.8439 28.9725C17.4625 28.9837 24.0811 28.9837 30.6998 28.9725C31.0458 28.9725 31.1909 29.0842 31.3025 29.3968C31.5557 30.0689 31.8259 30.7241 32.0983 31.3845C32.1381 31.481 32.1779 31.5775 32.2177 31.6743C32.2456 31.7357 32.2707 31.7943 32.2959 31.8529C32.321 31.9115 32.3461 31.9702 32.374 32.0316C32.5191 32.3553 32.8204 32.5116 33.0883 32.3218C33.2669 32.199 33.4231 31.8083 33.3562 31.6073C33.1627 31.0112 32.9262 30.4312 32.6767 29.8188ZM24.9852 27.2085H20.7439C20.2756 27.2085 19.806 27.2073 19.3359 27.2061C18.3947 27.2036 17.4517 27.2011 16.5138 27.2085C16.1343 27.2085 15.766 27.1639 15.7548 26.6838C15.7437 26.1926 16.112 26.0921 16.5249 26.0921H24.9964C25.3982 26.0921 25.7777 26.1814 25.7777 26.6726C25.7777 27.1862 25.3759 27.2085 24.9852 27.2085Z" fill="#E60000"/>
<path d="M3.46634 23.8257H2.46634V24.8257H3.46634V23.8257ZM38.0775 23.8146L38.0785 24.8146L39.0775 24.8136V23.8146H38.0775ZM18.3109 19.1143H17.3109V20.8477L18.8114 19.98L18.3109 19.1143ZM19.7232 18.2975L19.2224 17.4319L19.7232 18.2975ZM18.3109 12.5497L18.8142 11.6856L17.3109 10.8099V12.5497H18.3109ZM21.9121 14.6323L22.4114 13.7658V13.7658L21.9121 14.6323ZM23.992 15.832L24.4909 16.6986L25.9929 15.8338L24.4925 14.9663L23.992 15.832ZM32.3405 28.9837V27.9837H30.8734L31.4097 29.3492L32.3405 28.9837ZM32.6767 29.8188L33.6027 29.4414L33.6027 29.4414L32.6767 29.8188ZM36.6599 28.9725L36.6679 29.9725L36.6746 29.9724L36.6599 28.9725ZM38.0328 27.8561L37.0345 27.7967L37.034 27.807L38.0328 27.8561ZM38.0524 25.8954L39.0523 25.881V25.881L38.0524 25.8954ZM38.0439 25.0091H39.0439V24.0091H38.0439V25.0091ZM3.45508 25.0091V24.0091H2.45508V25.0091H3.45508ZM9.18082 28.9725L10.1102 29.3418L10.6542 27.9725H9.18082V28.9725ZM8.18773 31.4504L7.2601 31.0768L7.2601 31.0769L8.18773 31.4504ZM8.18746 31.451L7.25984 31.0775L7.25534 31.0887L7.2511 31.1L8.18746 31.451ZM8.44417 32.333L8.80325 31.3997L8.79539 31.3967L8.44417 32.333ZM9.23663 31.8529L10.1631 32.2292L10.1634 32.2285L9.23663 31.8529ZM9.53464 31.129L10.4583 31.5122L10.4583 31.5122L9.53464 31.129ZM10.23 29.3744L9.29495 29.0199L9.29194 29.0278L9.28906 29.0358L10.23 29.3744ZM10.8439 28.9725L10.8455 27.9725H10.8439V28.9725ZM30.6998 28.9725V27.9725L30.6981 27.9725L30.6998 28.9725ZM31.3025 29.3968L30.3607 29.733L30.3636 29.7412L30.3667 29.7493L31.3025 29.3968ZM32.0983 31.3845L33.0227 31.0032L33.0227 31.0032L32.0983 31.3845ZM32.2177 31.6743L31.293 32.055L31.2999 32.0716L31.3073 32.088L32.2177 31.6743ZM32.374 32.0316L33.2865 31.6226L33.2844 31.6179L32.374 32.0316ZM33.0883 32.3218L32.5216 31.4978L32.5102 31.5059L33.0883 32.3218ZM33.3562 31.6073L32.405 31.916L32.4075 31.9235L33.3562 31.6073ZM19.3359 27.2061L19.3386 26.2061H19.3386L19.3359 27.2061ZM16.5138 27.2085V28.2086L16.5217 28.2085L16.5138 27.2085ZM15.7548 26.6838L14.7551 26.7065L14.7551 26.707L15.7548 26.6838ZM4.46634 23.8257V23.3456H2.46634V23.8257H4.46634ZM38.0765 22.8146C26.5363 22.8257 15.0407 22.8257 3.46634 22.8257V24.8257C15.0405 24.8257 26.5371 24.8257 38.0785 24.8146L38.0765 22.8146ZM37.0775 23.3345V23.8146H39.0775V23.3345H37.0775ZM37.0775 8.31835V23.3345H39.0775V8.31835H37.0775ZM36.5372 7.79999C36.9521 7.79999 37.0234 7.8939 37.0059 7.87657C36.9859 7.8568 37.0775 7.91934 37.0775 8.31835H39.0775C39.0775 7.6679 38.9347 6.97126 38.4124 6.45467C37.8927 5.94053 37.1939 5.79999 36.5372 5.79999V7.79999ZM5.0066 7.79999H36.5372V5.79999H5.0066V7.79999ZM4.46634 8.32951C4.46634 7.91662 4.55894 7.85277 4.53768 7.87403C4.51655 7.89516 4.58323 7.79999 5.0066 7.79999V5.79999C4.34732 5.79999 3.64387 5.93926 3.12327 6.46001C2.60255 6.98087 2.46634 7.68178 2.46634 8.32951H4.46634ZM4.46634 23.3456V8.32951H2.46634V23.3456H4.46634ZM18.8114 19.98C19.2874 19.7048 19.7574 19.433 20.2239 19.1631L19.2224 17.4319C18.7559 17.7018 18.2861 17.9735 17.8103 18.2486L18.8114 19.98ZM17.3109 12.5497V19.1143H19.3109V12.5497H17.3109ZM22.4114 13.7658C21.2076 13.0722 20.0198 12.3878 18.8142 11.6856L17.8075 13.4137C19.0179 14.1188 20.2098 14.8055 21.4129 15.4987L22.4114 13.7658ZM24.4925 14.9663C23.7901 14.5602 23.0981 14.1615 22.4114 13.7658L21.4129 15.4987C22.0999 15.8945 22.7905 16.2925 23.4914 16.6977L24.4925 14.9663ZM20.2239 19.1631C21.6504 18.3379 23.0454 17.5309 24.4909 16.6986L23.493 14.9654C22.0454 15.7988 20.6487 16.6068 19.2224 17.4319L20.2239 19.1631ZM31.4097 29.3492C31.5253 29.6436 31.6406 29.9264 31.7506 30.1963L33.6027 29.4414C33.492 29.1699 33.3815 28.8987 33.2713 28.6181L31.4097 29.3492ZM32.3413 27.9837H32.3405V29.9837H32.3413V27.9837ZM36.6519 27.9725C35.2617 27.9837 33.8485 27.9837 32.3413 27.9837V29.9837C33.847 29.9837 35.2683 29.9837 36.6679 29.9725L36.6519 27.9725ZM37.034 27.807C37.0324 27.838 37.0261 27.8502 37.0247 27.8528C37.023 27.8562 37.0174 27.8659 36.9991 27.8803C36.9593 27.9118 36.8494 27.9696 36.6452 27.9726L36.6746 29.9724C37.7682 29.9563 38.9637 29.2862 39.0315 27.9052L37.034 27.807ZM37.0525 25.9098C37.0621 26.5752 37.0705 27.1916 37.0345 27.7967L39.031 27.9155C39.0721 27.2241 39.0617 26.5335 39.0523 25.881L37.0525 25.9098ZM37.0439 25.0091C37.0439 25.314 37.0483 25.6166 37.0525 25.9098L39.0523 25.881C39.048 25.5855 39.0439 25.2972 39.0439 25.0091H37.0439ZM3.45508 26.0091H38.0439V24.0091H3.45508V26.0091ZM4.45508 27.376V25.0091H2.45508V27.376H4.45508ZM5.03998 27.9725C4.82567 27.9725 4.69225 27.9494 4.61453 27.9255C4.57766 27.9142 4.5572 27.904 4.54781 27.8985C4.54306 27.8958 4.54046 27.8939 4.53939 27.8931C4.53881 27.8926 4.53848 27.8924 4.53834 27.8922C4.53819 27.8921 4.53813 27.892 4.5381 27.892C4.53807 27.892 4.53799 27.8919 4.53782 27.8917C4.53765 27.8915 4.53732 27.8911 4.53681 27.8904C4.53585 27.8892 4.53378 27.8863 4.53084 27.8811C4.52501 27.8709 4.51437 27.8494 4.50277 27.8111C4.47837 27.7306 4.45508 27.5939 4.45508 27.376H2.45508C2.45508 28.048 2.58996 28.7693 3.11986 29.3022C3.65114 29.8365 4.37137 29.9725 5.03998 29.9725V27.9725ZM9.18082 27.9725H5.03998V29.9725H9.18082V27.9725ZM9.11535 31.8239C9.43885 31.0205 9.76327 30.2148 10.1102 29.3418L8.25149 28.6033C7.90655 29.4714 7.58379 30.273 7.2601 31.0768L9.11535 31.8239ZM9.11509 31.8245L9.11535 31.8239L7.2601 31.0769L7.25984 31.0775L9.11509 31.8245ZM8.79539 31.3967C8.79842 31.3978 8.86867 31.425 8.94553 31.5118C9.02817 31.6051 9.07075 31.7135 9.08529 31.8032C9.09776 31.8801 9.0867 31.9231 9.08926 31.9101C9.09156 31.8985 9.09992 31.8658 9.12383 31.802L7.2511 31.1C7.1781 31.2947 7.04069 31.6891 7.11106 32.1232C7.15071 32.3678 7.25468 32.6192 7.44823 32.8377C7.63601 33.0498 7.86671 33.1844 8.09296 33.2693L8.79539 31.3967ZM8.31012 31.4766C8.28649 31.5348 8.27127 31.5619 8.26641 31.5697C8.26102 31.5782 8.2819 31.5413 8.34068 31.4962C8.40823 31.4444 8.50587 31.3977 8.62099 31.385C8.72927 31.373 8.79669 31.3972 8.80324 31.3997L8.08511 33.2663C8.57916 33.4564 9.11712 33.4212 9.55776 33.0833C9.90646 32.8158 10.0778 32.4393 10.1631 32.2292L8.31012 31.4766ZM8.61097 30.7458C8.51129 30.9861 8.40972 31.2309 8.30985 31.4773L10.1634 32.2285C10.2597 31.991 10.3581 31.7537 10.4583 31.5122L8.61097 30.7458ZM9.28906 29.0358C9.08542 29.6016 8.85377 30.1605 8.61097 30.7458L10.4583 31.5122C10.6981 30.9343 10.9484 30.3314 11.1709 29.7131L9.28906 29.0358ZM10.8439 27.9725C10.6267 27.9725 10.2757 27.9926 9.93805 28.2C9.57897 28.4207 9.39766 28.749 9.29495 29.0199L11.165 29.729C11.1851 29.6761 11.1489 29.8034 10.9851 29.9041C10.8428 29.9915 10.7373 29.9725 10.8439 29.9725V27.9725ZM30.6981 27.9725C24.0806 27.9837 17.4631 27.9837 10.8455 27.9725L10.8422 29.9725C17.4619 29.9837 24.0817 29.9837 30.7015 29.9725L30.6981 27.9725ZM32.2443 29.0605C32.1614 28.8283 32.0082 28.4958 31.6715 28.2546C31.3324 28.0116 30.9637 27.9725 30.6998 27.9725V29.9725C30.7819 29.9725 30.6587 29.9893 30.5065 29.8802C30.3568 29.7729 30.332 29.6526 30.3607 29.733L32.2443 29.0605ZM33.0227 31.0032C32.7494 30.3405 32.4852 29.6996 32.2383 29.0442L30.3667 29.7493C30.6262 30.4383 30.9024 31.1076 31.1738 31.7658L33.0227 31.0032ZM33.1424 31.2936C33.1025 31.1965 33.0625 31.0996 33.0227 31.0032L31.1738 31.7657C31.2136 31.8623 31.2533 31.9585 31.293 32.055L33.1424 31.2936ZM33.215 31.4591C33.1905 31.4017 33.1612 31.3334 33.1281 31.2606L31.3073 32.088C31.33 32.138 31.351 32.1869 31.3767 32.2468L33.215 31.4591ZM33.2844 31.6179C33.2617 31.5678 33.2407 31.519 33.215 31.4591L31.3767 32.2468C31.4012 32.3041 31.4305 32.3725 31.4636 32.4453L33.2844 31.6179ZM32.5102 31.5059C32.5713 31.4626 32.6641 31.4194 32.7823 31.4073C32.8997 31.3953 33.0056 31.4178 33.0876 31.4539C33.241 31.5213 33.2844 31.6179 33.2865 31.6226L31.4614 32.4405C31.6086 32.769 31.8753 33.1056 32.2826 33.2847C32.7324 33.4825 33.2469 33.435 33.6664 33.1378L32.5102 31.5059ZM32.4075 31.9235C32.3611 31.7844 32.3727 31.6849 32.3748 31.6672C32.3782 31.639 32.3829 31.63 32.3807 31.6356C32.3788 31.6405 32.3789 31.6378 32.3875 31.6251C32.3911 31.6197 32.43 31.5609 32.5217 31.4979L33.6549 33.1458C33.9832 32.9201 34.1621 32.5759 34.2479 32.3521C34.3281 32.1433 34.4491 31.724 34.3049 31.2912L32.4075 31.9235ZM31.7506 30.1963C32.0027 30.8147 32.2248 31.3607 32.405 31.916L34.3073 31.2986C34.1006 30.6617 33.8498 30.0476 33.6027 29.4414L31.7506 30.1963ZM20.7439 28.2085H24.9852V26.2085H20.7439V28.2085ZM19.3333 28.2061C19.8031 28.2073 20.274 28.2085 20.7439 28.2085V26.2085C20.2771 26.2085 19.8088 26.2073 19.3386 26.2061L19.3333 28.2061ZM16.5217 28.2085C17.4535 28.2011 18.3911 28.2036 19.3333 28.2061L19.3386 26.2061C18.3982 26.2036 17.45 26.2011 16.5058 26.2086L16.5217 28.2085ZM14.7551 26.707C14.7608 26.9533 14.8144 27.2222 14.9621 27.474C15.114 27.7333 15.3271 27.9086 15.5453 28.0188C15.9239 28.21 16.3367 28.2085 16.5138 28.2085V26.2085C16.433 26.2085 16.3907 26.2057 16.3682 26.2027C16.3442 26.1996 16.3822 26.2009 16.447 26.2336C16.5243 26.2726 16.6195 26.3468 16.6874 26.4626C16.751 26.571 16.7544 26.6544 16.7545 26.6606L14.7551 26.707ZM16.5249 25.0921C16.2801 25.0921 15.8496 25.1132 15.4613 25.3493C14.9684 25.649 14.7427 26.1602 14.7551 26.7065L16.7546 26.6611C16.7546 26.6632 16.7555 26.7342 16.7061 26.8328C16.6532 26.9382 16.5733 27.0138 16.5004 27.0582C16.4374 27.0965 16.397 27.1013 16.4107 27.0988C16.423 27.0965 16.4582 27.0921 16.5249 27.0921V25.0921ZM24.9964 25.0921H16.5249V27.0921H24.9964V25.0921ZM26.7777 26.6726C26.7777 26.421 26.7286 26.1523 26.5918 25.8993C26.4521 25.6407 26.2515 25.4555 26.0375 25.332C25.6517 25.1094 25.2294 25.0921 24.9964 25.0921V27.0921C25.0638 27.0921 25.1008 27.0962 25.1163 27.0989C25.1332 27.1018 25.0971 27.0985 25.0379 27.0643C24.9689 27.0245 24.8883 26.9537 24.8323 26.8501C24.7793 26.752 24.7777 26.6786 24.7777 26.6726H26.7777ZM24.9852 28.2085C25.1402 28.2085 25.5675 28.2185 25.9514 28.0391C26.1785 27.9329 26.4083 27.7558 26.5704 27.4806C26.7273 27.2142 26.7777 26.9292 26.7777 26.6726H24.7777C24.7777 26.6724 24.7776 26.6505 24.7864 26.6133C24.7955 26.5749 24.8134 26.5228 24.8471 26.4655C24.9217 26.3389 25.0266 26.2636 25.1045 26.2273C25.1677 26.1977 25.2009 26.199 25.1652 26.2029C25.1312 26.2066 25.0802 26.2085 24.9852 26.2085V28.2085Z" fill="#E60000" mask="url(#path-1-inside-1_1322_1651)"/>
</g>
</g>
<defs>
<filter id="filter0_b_1322_1651" x="-8.54492" y="-5.20001" width="58.6226" height="49.6041" filterUnits="userSpaceOnUse" color-interpolation-filters="sRGB">
<feFlood flood-opacity="0" result="BackgroundImageFix"/>
<feGaussianBlur in="BackgroundImageFix" stdDeviation="6"/>
<feComposite in2="SourceAlpha" operator="in" result="effect1_backgroundBlur_1322_1651"/>
<feBlend mode="normal" in="SourceGraphic" in2="effect1_backgroundBlur_1322_1651" result="shape"/>
</filter>
<clipPath id="clip0_1322_1651">
<rect width="34.6" height="25.6" fill="white" transform="translate(3.46631 6.79999)"/>
</clipPath>
</defs>
</svg>
