<svg width="24" height="24" viewBox="0 0 24 24" fill="none" xmlns="http://www.w3.org/2000/svg">
<path fill-rule="evenodd" clip-rule="evenodd" d="M2.1354 12.55C2.18362 13.2918 2.26474 13.8785 2.46919 14.6353C2.52465 14.8405 2.70446 14.9783 2.91713 14.9783H5.76763C5.83268 14.9785 5.89705 14.9651 5.95654 14.9387C6.01603 14.9124 6.06929 14.8739 6.11285 14.8255C6.15641 14.7772 6.18928 14.7203 6.20932 14.6584C6.22935 14.5965 6.2361 14.5311 6.22912 14.4664C6.06084 12.845 6.04278 11.1586 6.17684 9.52304C6.18235 9.45907 6.17447 9.39466 6.15371 9.33391C6.13295 9.27316 6.09976 9.2174 6.05625 9.17019C6.01275 9.12297 5.95988 9.08534 5.90103 9.05968C5.84218 9.03403 5.77862 9.02092 5.71442 9.02119H2.91717C2.70455 9.02119 2.5247 9.15892 2.46924 9.3642C2.32935 9.88088 2.2314 10.408 2.17634 10.9405C2.12653 11.4239 2.12097 11.7379 2.12357 12.2152L2.1354 12.55ZM6.48188 7.15403C6.66942 6.10299 6.92107 5.0969 7.23124 4.15745C7.36989 3.73742 6.89118 3.37891 6.52714 3.63012C5.31281 4.46797 4.28844 5.56307 3.53441 6.83605C3.35067 7.14621 3.57313 7.53652 3.93363 7.53652H6.02512C6.25195 7.53652 6.44205 7.37733 6.48188 7.15403ZM16.5419 6.98234C16.198 5.24677 15.666 3.66531 14.9726 2.35675C14.9081 2.23518 14.8055 2.15548 14.6718 2.12306C13.1053 1.74357 11.4586 1.74388 9.89323 2.12306C9.75948 2.15548 9.65695 2.23514 9.59248 2.35675C8.89903 3.66536 8.3671 5.24677 8.02316 6.98234C8.00955 7.04964 8.0111 7.11913 8.02769 7.18576C8.04428 7.25239 8.07549 7.31449 8.11907 7.36756C8.16265 7.42062 8.2175 7.46331 8.27963 7.49254C8.34177 7.52176 8.40963 7.53679 8.47829 7.53652H16.0868C16.3807 7.53652 16.5991 7.27069 16.5419 6.98234ZM18.5399 7.53652H20.6315C20.992 7.53652 21.2144 7.14626 21.0307 6.83609C20.2766 5.5629 19.2522 4.46748 18.0378 3.62981C17.6737 3.37869 17.195 3.7372 17.3337 4.15718C17.6439 5.09672 17.8956 6.1029 18.0831 7.15407C18.123 7.37733 18.3131 7.53652 18.5399 7.53652ZM18.7975 14.9783H21.648C21.8606 14.9783 22.0405 14.8406 22.0959 14.6353C22.2359 14.1187 22.3338 13.5915 22.3888 13.059C22.4428 12.5309 22.4415 12.289 22.4415 11.7639C22.4415 11.5535 22.4074 11.1217 22.3887 10.9405C22.3337 10.408 22.2357 9.88088 22.0958 9.3642C22.0404 9.15892 21.8605 9.02119 21.6479 9.02119H18.8507C18.7865 9.02092 18.7229 9.03403 18.6641 9.05968C18.6052 9.08534 18.5524 9.12297 18.5089 9.17019C18.4654 9.2174 18.4322 9.27316 18.4114 9.33391C18.3906 9.39466 18.3828 9.45907 18.3883 9.52304C18.5223 11.1587 18.5043 12.8449 18.336 14.4664C18.329 14.5311 18.3358 14.5965 18.3558 14.6584C18.3758 14.7203 18.4087 14.7772 18.4523 14.8256C18.4958 14.8739 18.5491 14.9125 18.6086 14.9388C18.6681 14.9651 18.7324 14.9786 18.7975 14.9783ZM17.9754 16.8336C17.7534 17.9149 17.4507 18.9967 17.0654 20.0056C16.9061 20.4229 17.3732 20.8027 17.7492 20.5617C19.0928 19.7001 20.2164 18.5364 21.0304 17.1635C21.2142 16.8533 20.9918 16.4629 20.6312 16.4629H18.4299C18.2072 16.463 18.0201 16.6156 17.9754 16.8336ZM7.49954 20.0053C7.11431 18.9964 6.81165 17.9149 6.58972 16.8337C6.54494 16.6156 6.35784 16.463 6.13524 16.463H3.9339C3.57335 16.463 3.35093 16.8533 3.53472 17.1635C4.34872 18.5363 5.47227 19.6999 6.81576 20.5615C7.1918 20.8025 7.6589 20.4226 7.49954 20.0053ZM15.9573 16.463H8.60785C8.53804 16.4627 8.46907 16.4782 8.40612 16.5084C8.34317 16.5386 8.28786 16.5826 8.24435 16.6372C8.20084 16.6918 8.17024 16.7555 8.15486 16.8236C8.13948 16.8917 8.13972 16.9624 8.15554 17.0304C8.57288 18.8548 9.2012 20.4827 10.0013 21.7586C10.0718 21.871 10.1742 21.9415 10.3043 21.9673C11.6103 22.2259 12.9537 22.2262 14.2608 21.9673C14.3909 21.9415 14.4933 21.871 14.5637 21.7586C15.3639 20.4827 15.9922 18.8551 16.4096 17.0304C16.4254 16.9624 16.4256 16.8917 16.4103 16.8236C16.3949 16.7555 16.3643 16.6918 16.3208 16.6372C16.2773 16.5826 16.2219 16.5386 16.159 16.5084C16.096 16.4782 16.0271 16.4627 15.9573 16.463ZM7.57297 11.7022C7.57297 12.6758 7.63029 13.6362 7.73772 14.5675C7.75042 14.6808 7.80448 14.7853 7.88955 14.8611C7.97462 14.937 8.08469 14.9787 8.19864 14.9783H16.3665C16.6033 14.9783 16.8002 14.8028 16.8274 14.5675C17.0231 12.8661 17.0445 11.1492 16.8911 9.44347C16.8809 9.32801 16.8278 9.22056 16.7423 9.14238C16.6567 9.06419 16.5449 9.02096 16.429 9.02123H8.13607C8.02016 9.02096 7.90837 9.06419 7.82281 9.14238C7.73724 9.22056 7.68412 9.32801 7.67396 9.44347C7.60647 10.1945 7.57277 10.9482 7.57297 11.7022Z" fill="white"/>
</svg>
