<svg width="72" height="72" viewBox="0 0 72 72" fill="none" xmlns="http://www.w3.org/2000/svg">
<g clip-path="url(#clip0_1343_62)">
<path d="M71.9112 52.6857C71.8769 52.6459 71.8345 52.6139 71.7868 52.592C71.7391 52.57 71.6872 52.5586 71.6347 52.5585H0.365167C0.312543 52.5584 0.260528 52.5698 0.212681 52.5917C0.164835 52.6136 0.122289 52.6456 0.0879553 52.6855C0.0536215 52.7253 0.0283112 52.7722 0.0137573 52.8227C-0.000796498 52.8733 -0.00425017 52.9264 0.00363279 52.9785C0.0139835 53.045 1.08897 59.6443 9.43235 59.6443H62.5675C70.9102 59.6443 71.9851 53.045 71.9962 52.9785C72.0036 52.9264 71.9999 52.8734 71.9852 52.8229C71.9706 52.7724 71.9454 52.7257 71.9112 52.6857ZM41.3597 57.3331H30.6394V54.8682H41.3597V57.3331ZM7.76811 49.993H64.231C64.6232 49.993 64.9993 49.8372 65.2766 49.5599C65.5539 49.2826 65.7097 48.9065 65.7097 48.5144V13.8352C65.7097 13.443 65.5539 13.0669 65.2766 12.7896C64.9993 12.5123 64.6232 12.3565 64.231 12.3565H7.76811C7.37595 12.3565 6.99984 12.5123 6.72254 12.7896C6.44523 13.0669 6.28945 13.443 6.28945 13.8352V48.5144C6.28945 48.9065 6.44523 49.2826 6.72254 49.5599C6.99984 49.8372 7.37595 49.993 7.76811 49.993ZM11.4648 17.5318H60.5343V44.8177H11.4648V17.5318Z" fill="white"/>
</g>
<defs>
<clipPath id="clip0_1343_62">
<rect width="72" height="72" fill="white"/>
</clipPath>
</defs>
</svg>
