<svg width="72" height="72" viewBox="0 0 72 72" fill="none" xmlns="http://www.w3.org/2000/svg">
<path d="M47.6143 0H23.6579C19.4301 0.00475569 16.0043 3.43069 16 7.65849V64.342C16.0041 68.5698 19.4302 71.9956 23.6579 71.9998H47.6143C51.8421 71.9957 55.2678 68.5696 55.2728 64.342V7.65849C55.268 3.43069 51.8421 0.00490909 47.6143 0ZM35.6364 65.4548C33.8284 65.4548 32.3632 63.9897 32.3632 62.1817C32.3632 60.3743 33.8283 58.9091 35.6364 58.9091C37.4437 58.9091 38.9089 60.3742 38.9089 62.1817C38.9089 63.9896 37.4438 65.4548 35.6364 65.4548ZM40.5455 9.81819H30.7273C29.8237 9.81819 29.0907 9.08535 29.0907 8.18162C29.0907 7.27789 29.8235 6.54566 30.7273 6.54566H40.5455C41.4491 6.54566 42.1814 7.27789 42.1814 8.18162C42.1814 9.08535 41.4492 9.81819 40.5455 9.81819Z" fill="white"/>
</svg>
