<svg width="20" height="20" viewBox="0 0 20 20" fill="none" xmlns="http://www.w3.org/2000/svg">
<circle cx="10" cy="10" r="10" fill="white"/>
<path fill-rule="evenodd" clip-rule="evenodd" d="M6.66627 8.75002C6.62647 8.71159 6.59473 8.66561 6.57289 8.61477C6.55105 8.56394 6.53956 8.50926 6.53908 8.45394C6.5386 8.39862 6.54914 8.34375 6.57009 8.29254C6.59104 8.24134 6.62198 8.19481 6.6611 8.15569C6.70022 8.11657 6.74674 8.08563 6.79795 8.06468C6.84916 8.04373 6.90402 8.03319 6.95935 8.03367C7.01467 8.03415 7.06935 8.04564 7.12018 8.06748C7.17102 8.08932 7.217 8.12106 7.25543 8.16086L9.70502 10.6104C9.78315 10.6886 9.88911 10.7324 9.9996 10.7324C10.1101 10.7324 10.216 10.6886 10.2942 10.6104L12.7438 8.16044C12.8219 8.08231 12.928 8.03844 13.0385 8.03848C13.149 8.03852 13.255 8.08246 13.3331 8.16065C13.4113 8.23883 13.4551 8.34485 13.4551 8.45538C13.4551 8.56591 13.4111 8.67189 13.3329 8.75002L10.2942 11.7888C10.216 11.8669 10.1101 11.9108 9.9996 11.9108C9.88911 11.9108 9.78315 11.8669 9.70502 11.7888L6.66627 8.75002Z" fill="black"/>
</svg>
