<svg width="20" height="20" viewBox="0 0 20 20" fill="none" xmlns="http://www.w3.org/2000/svg">
<path d="M19.25 10H6.895M2.534 10H0.75M2.534 10C2.534 9.42183 2.76368 8.86734 3.17251 8.45851C3.58134 8.04968 4.13583 7.82 4.714 7.82C5.29217 7.82 5.84666 8.04968 6.25549 8.45851C6.66432 8.86734 6.894 9.42183 6.894 10C6.894 10.5782 6.66432 11.1327 6.25549 11.5415C5.84666 11.9503 5.29217 12.18 4.714 12.18C4.13583 12.18 3.58134 11.9503 3.17251 11.5415C2.76368 11.1327 2.534 10.5782 2.534 10ZM19.25 16.607H13.502M13.502 16.607C13.502 17.1853 13.2718 17.7404 12.8628 18.1493C12.4539 18.5583 11.8993 18.788 11.321 18.788C10.7428 18.788 10.1883 18.5573 9.77951 18.1485C9.37068 17.7397 9.141 17.1852 9.141 16.607M13.502 16.607C13.502 16.0287 13.2718 15.4746 12.8628 15.0657C12.4539 14.6567 11.8993 14.427 11.321 14.427C10.7428 14.427 10.1883 14.6567 9.77951 15.0655C9.37068 15.4743 9.141 16.0288 9.141 16.607M9.141 16.607H0.75M19.25 3.393H16.145M11.784 3.393H0.75M11.784 3.393C11.784 2.81483 12.0137 2.26034 12.4225 1.85151C12.8313 1.44268 13.3858 1.213 13.964 1.213C14.2503 1.213 14.5338 1.26939 14.7983 1.37894C15.0627 1.4885 15.3031 1.64908 15.5055 1.85151C15.7079 2.05394 15.8685 2.29426 15.9781 2.55875C16.0876 2.82324 16.144 3.10672 16.144 3.393C16.144 3.67928 16.0876 3.96276 15.9781 4.22725C15.8685 4.49174 15.7079 4.73206 15.5055 4.93449C15.3031 5.13693 15.0627 5.2975 14.7983 5.40706C14.5338 5.51661 14.2503 5.573 13.964 5.573C13.3858 5.573 12.8313 5.34332 12.4225 4.93449C12.0137 4.52566 11.784 3.97117 11.784 3.393Z" stroke="white" stroke-width="1.5" stroke-miterlimit="10" stroke-linecap="round"/>
</svg>
