<svg width="10" height="18" viewBox="0 0 10 18" fill="none" xmlns="http://www.w3.org/2000/svg">
<path fill-rule="evenodd" clip-rule="evenodd" d="M2.00015 0.99999C1.90791 0.90448 1.79756 0.828298 1.67556 0.775889C1.55355 0.72348 1.42233 0.695894 1.28955 0.69474C1.15677 0.693586 1.02509 0.718888 0.902198 0.769169C0.779302 0.81945 0.667649 0.893703 0.573756 0.987595C0.479864 1.08149 0.405611 1.19314 0.35533 1.31604C0.30505 1.43893 0.279748 1.57061 0.280902 1.70339C0.282056 1.83617 0.309641 1.96739 0.36205 2.08939C0.414459 2.2114 0.490642 2.32174 0.586152 2.41399L6.46515 8.29299C6.65262 8.48052 6.75794 8.73483 6.75794 8.99999C6.75794 9.26515 6.65262 9.51946 6.46515 9.70699L0.585151 15.586C0.397643 15.7736 0.292356 16.0281 0.292449 16.2933C0.292542 16.5586 0.398012 16.813 0.585652 17.0005C0.773293 17.188 1.02774 17.2933 1.29301 17.2932C1.55828 17.2931 1.81264 17.1876 2.00015 17L9.29315 9.70699C9.48062 9.51946 9.58594 9.26515 9.58594 8.99999C9.58594 8.73483 9.48062 8.48052 9.29315 8.29299L2.00015 0.99999Z" fill="white"/>
</svg>
