<svg width="24" height="20" viewBox="0 0 24 20" fill="none" xmlns="http://www.w3.org/2000/svg">
<path d="M7.2002 1L12.0002 4L12.6002 3.4L13.8002 2.8L14.4002 2.2C14.6002 2 15.1202 1.6 15.6002 1.6C16.0802 1.6 16.2002 1.2 16.2002 1H16.8002C17.2002 1.2 18.1202 1.6 18.6002 1.6H19.2002L19.8002 2.2L21.0002 2.8L21.6002 3.4L22.2002 4L22.8002 5.2V7C22.6002 8 22.2002 10.12 22.2002 10.6C22.2002 11.2 21.6002 11.2 21.0002 11.8C20.4002 12.4 20.4002 12.4 19.8002 12.4C19.3202 12.4 18.8002 13.2 18.6002 13.6C18.4002 13.8 17.8802 14.2 17.4002 14.2C16.9202 14.2 16.8002 15 16.8002 15.4L15.6002 16.6L14.4002 17.2L12.6002 18.4H11.4002L10.2002 17.8L9.0002 17.2L7.8002 14.8L4.8002 13L2.4002 10.6L1.2002 7.6L1.8002 4.6L3.6002 1.6L7.2002 1Z" fill="#ED2024"/>
<path d="M22.0718 1.96971C19.4616 -0.639778 15.2154 -0.639778 12.6059 1.96971L11.9998 2.57546L11.394 1.96971C8.78456 -0.640131 4.53796 -0.640131 1.92847 1.96971C-0.628033 4.52622 -0.644634 8.57855 1.88997 11.3961C4.20171 13.9649 11.0196 19.5149 11.3089 19.7498C11.4974 19.9035 11.7332 19.9873 11.9765 19.9871L11.9994 19.9868C12.2424 19.9981 12.4872 19.9147 12.69 19.7498C12.9792 19.5149 19.7979 13.9649 22.1103 11.3957C24.6446 8.57855 24.628 4.52622 22.0718 1.96971ZM20.535 9.9783C18.7326 11.9806 13.7782 16.1103 11.9994 17.5758C10.2207 16.1107 5.26733 11.9813 3.46527 9.97866C1.69712 8.01342 1.68052 5.21461 3.42677 3.46836C4.31862 2.57687 5.48985 2.13077 6.66108 2.13077C7.83231 2.13077 9.00354 2.57652 9.89539 3.46836L11.2277 4.80066C11.3819 4.95402 11.581 5.05434 11.796 5.08711C11.9694 5.1247 12.1496 5.11821 12.3199 5.06823C12.4902 5.01825 12.6452 4.92638 12.7708 4.80101L14.1038 3.46836C15.8879 1.68503 18.7898 1.68538 20.5728 3.46836C22.3191 5.21461 22.3025 8.01342 20.535 9.9783Z" fill="#ED2024"/>
</svg>
