<svg width="18" height="13" viewBox="0 0 18 13" fill="none" xmlns="http://www.w3.org/2000/svg">
<path d="M14.7557 11.7558L3.24341 0.243853L3.24095 0.241041C3.17863 0.179222 3.10473 0.130285 3.0235 0.0970234C2.94226 0.0637616 2.85526 0.0468267 2.76748 0.0471858C2.67969 0.0475449 2.59284 0.065191 2.51187 0.0991163C2.43091 0.133042 2.35742 0.182582 2.2956 0.244908C2.23378 0.307235 2.18485 0.381127 2.15158 0.462367C2.11832 0.543606 2.10139 0.630601 2.10175 0.718385C2.10247 0.895673 2.17359 1.06541 2.29947 1.19026L3.3074 2.19819C2.08505 3.03535 1.03292 4.09715 0.206969 5.3271C0.0720918 5.52623 0 5.76123 0 6.00174C0 6.24226 0.0720918 6.47725 0.206969 6.67639C2.31529 9.79686 5.65759 11.625 8.9999 11.6021C10.0825 11.6061 11.1579 11.4258 12.1801 11.0692L13.8117 12.7008C13.9374 12.8224 14.1059 12.8899 14.2808 12.8887C14.4557 12.8875 14.6232 12.8177 14.7473 12.6944C14.8713 12.571 14.942 12.404 14.9442 12.229C14.9463 12.0541 14.8798 11.8853 14.7588 11.7589L14.7557 11.7558ZM8.9999 9.78772C8.36666 9.78749 7.74358 9.62856 7.1876 9.32545C6.63162 9.02235 6.16046 8.58474 5.81719 8.05262C5.47393 7.52049 5.26949 6.91083 5.22257 6.27933C5.17565 5.64784 5.28775 5.01465 5.54861 4.43764L6.60154 5.49057C6.51673 5.89023 6.53312 6.30474 6.64922 6.69645C6.76532 7.08816 6.97745 7.44465 7.26634 7.73355C7.55523 8.02244 7.91173 8.23457 8.30344 8.35067C8.69515 8.46677 9.10966 8.48316 9.50931 8.39835L10.5622 9.45127C10.0715 9.67379 9.53874 9.78852 8.9999 9.78772ZM17.7928 5.32534C15.6845 2.20311 12.3422 0.374986 8.9999 0.397838C7.91727 0.393917 6.84186 0.574142 5.81966 0.930807L7.43685 2.54799C8.1386 2.23042 8.92047 2.13426 9.67825 2.27232C10.436 2.41038 11.1338 2.77611 11.6784 3.32077C12.2231 3.86543 12.5888 4.56314 12.7269 5.32093C12.8649 6.07872 12.7688 6.86058 12.4512 7.56233L14.692 9.80319C15.9146 8.96616 16.9669 7.90434 17.7928 6.67428C17.9276 6.47518 17.9997 6.24025 17.9997 5.99981C17.9997 5.75937 17.9276 5.52444 17.7928 5.32534Z" fill="#717374"/>
<path d="M9.00014 3.54819C8.82893 3.54821 8.6582 3.56612 8.49072 3.60162L11.3985 6.50905C11.4743 6.15183 11.4694 5.78218 11.3841 5.42711C11.2987 5.07204 11.1352 4.74051 10.9053 4.45675C10.6755 4.17298 10.3851 3.94414 10.0555 3.78695C9.72588 3.62976 9.36532 3.54819 9.00014 3.54819Z" fill="#717374"/>
</svg>
