<svg width="32" height="32" viewBox="0 0 32 32" fill="none" xmlns="http://www.w3.org/2000/svg">
<path d="M21.3203 17H10.3203C8.67031 17 7.32031 18.35 7.32031 20V28C7.32031 29.65 8.67031 31 10.3203 31H21.3203C22.9703 31 24.3203 29.65 24.3203 28V20C24.3203 18.35 22.9703 17 21.3203 17ZM12.3203 27C12.3203 27.55 11.8703 28 11.3203 28C10.7703 28 10.3203 27.55 10.3203 27V21C10.3203 20.45 10.7703 20 11.3203 20C11.8703 20 12.3203 20.45 12.3203 21V27ZM18.5203 25.6H17.1203V27C17.1203 27.55 16.6703 28 16.1203 28C15.5703 28 15.1203 27.55 15.1203 27V21C15.1203 20.45 15.5703 20 16.1203 20H18.5203C20.0603 20 21.3203 21.26 21.3203 22.8C21.3203 24.34 20.0603 25.6 18.5203 25.6Z" fill="white"/>
<path d="M18.5201 22H17.1201V23.6H18.5201C18.9601 23.6 19.3201 23.24 19.3201 22.8C19.3201 22.36 18.9601 22 18.5201 22Z" fill="white"/>
<path d="M27.4302 16.02C27.2872 15.088 26.9433 14.1981 26.4222 13.4122C25.9012 12.6263 25.2155 11.963 24.4127 11.4684C23.6098 10.9737 22.7091 10.6596 21.7728 10.5476C20.8365 10.4357 19.887 10.5286 18.9902 10.82V12C18.9902 12.55 18.5402 13 17.9902 13C17.4402 13 16.9902 12.55 16.9902 12V9.75002C15.5759 8.61331 13.8147 7.99566 12.0002 8.00002C7.59023 8.00002 4.00023 11.59 4.00023 16V16.13C3.05869 16.3741 2.23841 16.953 1.69293 17.7584C1.14745 18.5637 0.914184 19.5402 1.03679 20.5051C1.1594 21.47 1.62947 22.3572 2.35902 23.0005C3.08856 23.6438 4.02756 23.9991 5.00023 24H5.32023V20C5.32023 17.24 7.56023 15 10.3202 15H21.3202C24.0802 15 26.3202 17.24 26.3202 20V24H27.0002C29.2102 24 31.0002 22.21 31.0002 20C31.0002 17.94 29.4302 16.24 27.4302 16.02ZM20.0802 6.27002C20.5202 6.27002 20.9402 6.44002 21.2502 6.75002C21.5602 7.06002 21.7302 7.48002 21.7302 7.92002C21.7302 8.47002 22.1702 8.92002 22.7302 8.92002C23.2802 8.92002 23.7302 8.48002 23.7302 7.92002C23.7302 6.94002 23.3602 6.02002 22.6702 5.33002C21.9802 4.64002 21.0702 4.27002 20.1002 4.27002H20.0802C19.5302 4.27002 19.0802 4.72002 19.0802 5.27002C19.0802 5.82002 19.5302 6.27002 20.0802 6.27002Z" fill="white"/>
<path d="M20.7004 2.99999H20.7304C21.2945 2.99866 21.8533 3.10911 22.3745 3.32498C22.8957 3.54085 23.3689 3.85786 23.7669 4.25768C24.1649 4.6575 24.4797 5.13222 24.6931 5.6544C24.9065 6.17658 25.0144 6.73588 25.0104 7.29999C25.0104 7.84999 25.4504 8.29999 26.0104 8.29999C26.5604 8.29999 27.0104 7.85999 27.0104 7.29999C27.0104 5.60999 26.3704 4.01999 25.1704 2.82999C23.9704 1.63999 22.4104 0.98999 20.7304 0.98999H20.7004C20.1504 0.98999 19.7004 1.43999 19.7004 1.98999C19.7004 2.53999 20.1504 2.98999 20.7004 2.98999V2.99999ZM19.1804 9.10999C19.3804 9.30999 19.6304 9.39999 19.8904 9.39999C20.1504 9.39999 20.4004 9.29999 20.6004 9.10999C20.6931 9.01748 20.7667 8.90759 20.8169 8.78661C20.867 8.66564 20.8929 8.53596 20.8929 8.40499C20.8929 8.27402 20.867 8.14434 20.8169 8.02337C20.7667 7.90239 20.6931 7.7925 20.6004 7.69999L20.3104 7.40999C20.1234 7.22301 19.8698 7.11797 19.6054 7.11797C19.341 7.11797 19.0874 7.22301 18.9004 7.40999C18.7134 7.59697 18.6084 7.85056 18.6084 8.11499C18.6084 8.37942 18.7134 8.63301 18.9004 8.81999L19.1904 9.10999H19.1804Z" fill="white"/>
</svg>
