<svg width="50" height="41" viewBox="0 0 50 41" fill="none" xmlns="http://www.w3.org/2000/svg">
<path fill-rule="evenodd" clip-rule="evenodd" d="M42.7272 13.6709C44.4902 13.6709 46.1811 12.9705 47.4277 11.7238C48.6744 10.4772 49.3748 8.78634 49.3748 7.0233C49.3748 5.26026 48.6744 3.56943 47.4277 2.32277C46.1811 1.07611 44.4902 0.375742 42.7272 0.375742C40.9642 0.375742 39.2733 1.07611 38.0267 2.32277C36.78 3.56943 36.0796 5.26026 36.0796 7.0233C36.0796 8.78634 36.78 10.4772 38.0267 11.7238C39.2733 12.9705 40.9642 13.6709 42.7272 13.6709ZM30.5134 4.80745C31.2136 4.80745 31.7366 5.45005 31.6812 6.14804C31.5598 7.65313 31.7485 9.16711 32.2356 10.5964C32.7227 12.0256 33.4978 13.3397 34.513 14.4575L26.3698 20.8569C25.9793 21.1638 25.497 21.3307 25.0004 21.3307C24.5037 21.3307 24.0214 21.1638 23.631 20.8569L10.8588 10.8191C10.3966 10.4559 9.80902 10.2912 9.22538 10.3612C8.64173 10.4312 8.10981 10.7302 7.74662 11.1924C7.38344 11.6546 7.21874 12.2422 7.28876 12.8258C7.35878 13.4095 7.65778 13.9414 8.11999 14.3046L20.8944 24.3424C22.0654 25.2621 23.5113 25.7621 25.0004 25.7621C26.4894 25.7621 27.9353 25.2621 29.1063 24.3424L38.2467 17.1586C39.6579 17.7829 41.1842 18.1044 42.7272 18.1026C44.3713 18.1051 45.9952 17.7402 47.4802 17.0345C48.3045 16.6423 49.3748 17.1919 49.3748 18.1048V33.6135C49.3748 35.3766 48.6744 37.0674 47.4277 38.3141C46.1811 39.5607 44.4902 40.2611 42.7272 40.2611H7.27354C5.51049 40.2611 3.81966 39.5607 2.573 38.3141C1.32634 37.0674 0.625977 35.3766 0.625977 33.6135V11.455C0.625977 9.69197 1.32634 8.00113 2.573 6.75447C3.81966 5.50781 5.51049 4.80745 7.27354 4.80745H30.5134Z" fill="#767676"/>
</svg>
