<svg width="32" height="32" viewBox="0 0 32 32" fill="none" xmlns="http://www.w3.org/2000/svg">
<path d="M28.4225 13.5H23.0775C22.7919 13.5004 22.518 13.614 22.316 13.816C22.114 14.018 22.0004 14.2919 22 14.5775V25.9225C22 26.5165 22.4835 27 23.077 27H28.422C28.7077 26.9997 28.9817 26.8861 29.1838 26.6841C29.3859 26.4821 29.4996 26.2082 29.5 25.9225V14.5775C29.4996 14.2919 29.386 14.018 29.184 13.816C28.982 13.614 28.7081 13.5004 28.4225 13.5ZM26.5 25.5H25C24.8674 25.5 24.7402 25.4473 24.6464 25.3536C24.5527 25.2598 24.5 25.1326 24.5 25C24.5 24.8674 24.5527 24.7402 24.6464 24.6464C24.7402 24.5527 24.8674 24.5 25 24.5H26.5C26.6326 24.5 26.7598 24.5527 26.8536 24.6464C26.9473 24.7402 27 24.8674 27 25C27 25.1326 26.9473 25.2598 26.8536 25.3536C26.7598 25.4473 26.6326 25.5 26.5 25.5Z" fill="white"/>
<path d="M27 12.5V6.88951C26.9987 6.3888 26.7998 5.90885 26.4465 5.55401C26.2715 5.37782 26.0632 5.23812 25.8338 5.14303C25.6044 5.04793 25.3584 4.99931 25.11 5.00001H4.3895C3.88854 5.00054 3.40824 5.19978 3.05401 5.55401C2.69977 5.90825 2.50053 6.38854 2.5 6.88951V19.1105C2.50119 19.6111 2.69992 20.0911 3.053 20.446C3.40813 20.7995 3.88842 20.9986 4.3895 21H21V14.5775C21.0005 14.0268 21.2195 13.4987 21.6089 13.1093C21.9983 12.7198 22.5263 12.5007 23.077 12.5H27ZM15.5 19.2265H14C13.8674 19.2265 13.7402 19.1738 13.6464 19.0801C13.5527 18.9863 13.5 18.8591 13.5 18.7265C13.5 18.5939 13.5527 18.4667 13.6464 18.373C13.7402 18.2792 13.8674 18.2265 14 18.2265H15.5C15.6326 18.2265 15.7598 18.2792 15.8536 18.373C15.9473 18.4667 16 18.5939 16 18.7265C16 18.8591 15.9473 18.9863 15.8536 19.0801C15.7598 19.1738 15.6326 19.2265 15.5 19.2265ZM20 26H18V22H11.5V26H9.5C9.36739 26 9.24021 26.0527 9.14645 26.1465C9.05268 26.2402 9 26.3674 9 26.5C9 26.6326 9.05268 26.7598 9.14645 26.8536C9.24021 26.9473 9.36739 27 9.5 27H20C20.1326 27 20.2598 26.9473 20.3536 26.8536C20.4473 26.7598 20.5 26.6326 20.5 26.5C20.5 26.3674 20.4473 26.2402 20.3536 26.1465C20.2598 26.0527 20.1326 26 20 26Z" fill="white"/>
</svg>
