<svg width="21" height="20" viewBox="0 0 21 20" fill="none" xmlns="http://www.w3.org/2000/svg">
<path d="M12.5498 2.71665L13.2832 1.98331C14.1498 1.11665 15.6582 1.11665 16.5248 1.98331L17.1165 2.57498C17.33 2.78663 17.4994 3.03846 17.615 3.31594C17.7306 3.59342 17.7902 3.89104 17.7902 4.19165C17.7902 4.49225 17.7306 4.78988 17.615 5.06735C17.4994 5.34483 17.33 5.59666 17.1165 5.80831L16.3832 6.54165L12.5498 2.70831V2.71665ZM11.6665 3.59998L4.07484 11.1916C3.83317 11.4333 3.68317 11.75 3.65817 12.0916L3.43317 14.5333C3.40817 14.8416 3.5165 15.1416 3.73317 15.3666C3.93317 15.5666 4.1915 15.675 4.4665 15.675H4.55817L6.99984 15.45C7.3415 15.4166 7.65817 15.2666 7.89984 15.025L15.4915 7.43331L11.6582 3.59998H11.6665ZM19.4582 18.3333C19.4582 17.9916 19.1748 17.7083 18.8332 17.7083H2.1665C1.82484 17.7083 1.5415 17.9916 1.5415 18.3333C1.5415 18.675 1.82484 18.9583 2.1665 18.9583H18.8332C19.1748 18.9583 19.4582 18.675 19.4582 18.3333Z" fill="#ED2024"/>
</svg>
