<svg width="24" height="24" viewBox="0 0 24 24" fill="none" xmlns="http://www.w3.org/2000/svg">
<rect width="24" height="24" rx="5" fill="#ED2024"/>
<path d="M16.5285 10.7254L13.6234 13.5467C13.0142 14.1374 12.4074 14.7281 11.8017 15.3177C11.4143 15.6941 10.7548 15.6941 10.3651 15.3177C10.2463 15.2011 10.1274 15.0856 10.0108 14.9702C9.1697 14.1519 8.33085 13.3358 7.49086 12.5163C7.08972 12.1277 7.11714 11.5159 7.49086 11.1218C7.86114 10.7287 8.55142 10.7565 8.92742 11.1218C9.04742 11.2372 9.16627 11.3527 9.28284 11.4682C9.88398 12.0522 10.4851 12.6396 11.084 13.2236C12.036 12.2987 12.9857 11.3771 13.9365 10.4522L15.7582 8.68238C16.1594 8.29266 16.7891 8.31931 17.1948 8.68238C17.5982 9.04546 17.5696 9.71388 17.1936 10.0792C16.9731 10.2935 16.7491 10.5111 16.5285 10.7254Z" fill="white"/>
</svg>
