<svg width="40" height="40" viewBox="0 0 40 40" fill="none" xmlns="http://www.w3.org/2000/svg">
<path d="M39.8957 15.1154C39.7678 14.7018 39.526 14.3366 39.2006 14.0653C38.8751 13.7941 38.4804 13.6288 38.0655 13.5901L26.5204 12.4961L21.9552 1.3459C21.6185 0.528771 20.8519 0 20.0002 0C19.1484 0 18.3818 0.528853 18.0452 1.34793L13.4799 12.4962L1.933 13.5901C1.51863 13.6297 1.12451 13.7953 0.799501 14.0665C0.474496 14.3376 0.232902 14.7023 0.104672 15.1154C-0.158694 15.9606 0.0845153 16.8877 0.726328 17.472L9.45311 25.4582L6.87976 37.2867C6.69148 38.1564 7.01492 39.0555 7.7065 39.577C8.07815 39.8573 8.51309 40 8.95161 40C9.32975 40 9.70476 39.8936 10.0415 39.6834L20.0002 33.4725L29.9553 39.6834C30.6837 40.1408 31.602 40.099 32.292 39.577C32.6298 39.3219 32.8883 38.9688 33.0353 38.5615C33.1823 38.1543 33.2113 37.711 33.1188 37.2867L30.5455 25.4582L39.2722 17.4737C39.5861 17.1876 39.8126 16.8115 39.9234 16.3923C40.0343 15.973 40.0246 15.529 39.8957 15.1154Z" fill="#525252"/>
</svg>
