<svg width="32" height="32" viewBox="0 0 32 32" fill="none" xmlns="http://www.w3.org/2000/svg">
<path fill-rule="evenodd" clip-rule="evenodd" d="M16 27.437C12.035 27.437 8.813 24.187 8.813 20.182C8.813 16.176 12.035 12.927 16 12.927C19.965 12.927 23.187 16.176 23.187 20.182C23.187 24.187 19.965 27.437 16 27.437ZM15 19.778V23.363C15 23.6282 15.1054 23.8826 15.2929 24.0701C15.4804 24.2577 15.7348 24.363 16 24.363C16.2652 24.363 16.5196 24.2577 16.7071 24.0701C16.8946 23.8826 17 23.6282 17 23.363V19.777L17.292 20.07C17.4794 20.2578 17.7337 20.3634 17.9989 20.3637C18.2642 20.364 18.5187 20.2589 18.7065 20.0715C18.8943 19.8841 18.9999 19.6299 19.0002 19.3646C19.0005 19.0993 18.8954 18.8448 18.708 18.657L16.71 16.657C16.6173 16.564 16.5071 16.4902 16.3858 16.4398C16.2646 16.3894 16.1345 16.3634 16.0032 16.3633C15.8719 16.3632 15.7418 16.389 15.6205 16.4393C15.4991 16.4895 15.3889 16.5631 15.296 16.656L13.293 18.656C13.1054 18.8435 12.9999 19.0979 12.9998 19.3632C12.9997 19.6284 13.105 19.8829 13.2925 20.0705C13.48 20.2582 13.7344 20.3636 13.9996 20.3637C14.2649 20.3638 14.5194 20.2585 14.707 20.071L15 19.778ZM6.942 21.734C5.51776 21.3227 4.26572 20.4597 3.3744 19.2751C2.48308 18.0906 2.00074 16.6485 2 15.166C2.00099 13.4365 2.65723 11.7716 3.83658 10.5065C5.01593 9.24143 6.63079 8.47017 8.356 8.34802C8.58014 7.24042 9.14494 6.2306 9.97137 5.45985C10.7978 4.68911 11.8445 4.19601 12.965 4.04955C14.0856 3.9031 15.2238 4.11061 16.2206 4.64305C17.2173 5.1755 18.0227 6.00623 18.524 7.01902C19.8721 6.91262 21.2166 7.26427 22.34 8.01706C23.4634 8.76985 24.2999 9.87972 24.714 11.167C26.1274 11.202 27.4713 11.7879 28.4588 12.7997C29.4463 13.8115 29.9994 15.1692 30 16.583C29.9993 17.9451 29.4859 19.257 28.5618 20.2576C27.6377 21.2582 26.3707 21.8742 25.013 21.983C25.129 21.3897 25.1872 20.7866 25.187 20.182C25.187 15.067 21.063 10.927 16 10.927C10.937 10.927 6.813 15.067 6.813 20.182C6.813 20.711 6.857 21.23 6.942 21.734Z" fill="white"/>
</svg>
