<svg width="32" height="32" viewBox="0 0 32 32" fill="none" xmlns="http://www.w3.org/2000/svg">
<path d="M7.5308 16.7143H10.592V19.7755H7.5308V16.7143ZM2.93896 10.5918H29.0614V12.1224H2.93896V10.5918ZM26.0002 6H6.00019C4.31223 6 2.93896 7.37327 2.93896 9.06122H29.0614C29.0614 7.37327 27.6881 6 26.0002 6Z" fill="white"/>
<path d="M2.93896 13.6531V22.9388C2.93896 24.6267 4.31223 26 6.00019 26H26.0002C27.6881 26 29.0614 24.6267 29.0614 22.9388V13.6531H2.93896ZM12.1226 21.3061H6.00019V15.1837H12.1226V21.3061ZM26.0002 16.7143H13.6533V15.1837H26.0002V16.7143Z" fill="white"/>
</svg>
