<svg width="32" height="32" viewBox="0 0 32 32" fill="none" xmlns="http://www.w3.org/2000/svg">
<path d="M16.667 4.66669C14.2941 4.66444 11.9739 5.36653 10.0003 6.68403V6.00003C10.0003 5.6464 9.85985 5.30727 9.6098 5.05722C9.35975 4.80717 9.02061 4.66669 8.66699 4.66669C8.31337 4.66669 7.97423 4.80717 7.72418 5.05722C7.47413 5.30727 7.33366 5.6464 7.33366 6.00003V10C7.33366 10.3536 7.47413 10.6928 7.72418 10.9428C7.97423 11.1929 8.31337 11.3334 8.66699 11.3334H12.667C13.0206 11.3334 13.3598 11.1929 13.6098 10.9428C13.8598 10.6928 14.0003 10.3536 14.0003 10C14.0003 9.6464 13.8598 9.30727 13.6098 9.05722C13.3598 8.80717 13.0206 8.66669 12.667 8.66669H11.8803C13.3221 7.78868 14.9789 7.32718 16.667 7.33336C18.513 7.33336 20.3175 7.88075 21.8523 8.90631C23.3872 9.93187 24.5835 11.3895 25.2899 13.095C25.9963 14.8004 26.1811 16.677 25.821 18.4875C25.4609 20.298 24.5719 21.9611 23.2667 23.2664C21.9614 24.5716 20.2983 25.4606 18.4878 25.8207C16.6773 26.1808 14.8007 25.996 13.0953 25.2896C11.3898 24.5832 9.93217 23.3869 8.90661 21.852C7.88105 20.3172 7.33366 18.5127 7.33366 16.6667C7.33366 16.3131 7.19318 15.9739 6.94313 15.7239C6.69309 15.4738 6.35395 15.3334 6.00033 15.3334C5.6467 15.3334 5.30756 15.4738 5.05752 15.7239C4.80747 15.9739 4.66699 16.3131 4.66699 16.6667C4.66699 19.0401 5.37078 21.3601 6.68936 23.3335C8.00793 25.3069 9.88208 26.845 12.0748 27.7532C14.2675 28.6615 16.6803 28.8991 19.0081 28.4361C21.3358 27.9731 23.474 26.8302 25.1523 25.152C26.8305 23.4737 27.9734 21.3355 28.4364 19.0078C28.8994 16.68 28.6618 14.2672 27.7535 12.0745C26.8453 9.88178 25.3072 8.00763 23.3338 6.68906C21.3604 5.37048 19.0404 4.66669 16.667 4.66669Z" fill="white"/>
<path d="M16.6673 8.66669C16.3137 8.66669 15.9746 8.80716 15.7245 9.05721C15.4745 9.30726 15.334 9.6464 15.334 10V16.6667C15.3341 17.0203 15.4746 17.3594 15.7247 17.6094L19.7247 21.6094C19.9761 21.8522 20.3129 21.9866 20.6625 21.9836C21.0121 21.9805 21.3465 21.8403 21.5937 21.5931C21.841 21.3459 21.9812 21.0115 21.9842 20.6619C21.9873 20.3123 21.8529 19.9755 21.61 19.724L18.0007 16.1147V10C18.0007 9.6464 17.8602 9.30726 17.6101 9.05721C17.3601 8.80716 17.0209 8.66669 16.6673 8.66669Z" fill="white"/>
</svg>
